<?xml version="1.0"?>
<svg xmlns="http://www.w3.org/2000/svg" xmlns:xlink="http://www.w3.org/1999/xlink" xmlns:svgjs="http://svgjs.com/svgjs" version="1.1" width="512" height="512" x="0" y="0" viewBox="0 0 512 512" style="enable-background:new 0 0 512 512" xml:space="preserve" class=""><g>
<path xmlns="http://www.w3.org/2000/svg" style="" d="M256,512c-68.48,0-132.797-26.6-181.096-74.904C26.6,388.797,0,324.48,0,256  c0-68.486,26.6-132.797,74.904-181.096C123.204,26.6,187.515,0,256,0c68.48,0,132.797,26.6,181.096,74.904  C485.4,123.203,512,187.52,512,256c0,68.486-26.6,132.797-74.904,181.096l0,0l0,0C388.797,485.4,324.486,512,256,512z" fill="#c82a2a" data-original="#6dc82a" class=""/>
<path xmlns="http://www.w3.org/2000/svg" style="" d="M437.096,437.096C485.4,388.797,512,324.486,512,256c0-68.48-26.6-132.797-74.904-181.096  C388.797,26.6,324.48,0,256,0v512C324.486,512,388.797,485.4,437.096,437.096z" fill="#b32525" data-original="#61b325" class=""/>
<path xmlns="http://www.w3.org/2000/svg" style="" d="M279.624,256l82.695-82.695c6.526-6.52,6.526-17.103,0-23.624c-6.526-6.526-17.099-6.526-23.624,0  L256,232.376l-82.695-82.695c-6.526-6.526-17.099-6.526-23.624,0c-6.526,6.52-6.526,17.103,0,23.624L232.376,256l-82.695,82.695  c-6.526,6.52-6.526,17.103,0,23.624c3.263,3.263,7.538,4.895,11.812,4.895c4.274,0,8.549-1.632,11.812-4.895l82.695-82.695  l82.695,82.695c3.263,3.263,7.538,4.895,11.812,4.895c4.274,0,8.549-1.632,11.812-4.895c6.526-6.52,6.526-17.103,0-23.624  L279.624,256z" fill="#ffffff" data-original="#ffffff"/>
<path xmlns="http://www.w3.org/2000/svg" style="" d="M279.624,256l82.695-82.695c6.526-6.52,6.526-17.103,0-23.624c-6.526-6.526-17.099-6.526-23.624,0  L256,232.376v47.248l82.695,82.695c3.263,3.263,7.538,4.895,11.812,4.895c4.274,0,8.549-1.632,11.812-4.895  c6.526-6.52,6.526-17.103,0-23.624L279.624,256z" fill="#ffffff" data-original="#ffeb99" class=""/>
<g xmlns="http://www.w3.org/2000/svg">
</g>
<g xmlns="http://www.w3.org/2000/svg">
</g>
<g xmlns="http://www.w3.org/2000/svg">
</g>
<g xmlns="http://www.w3.org/2000/svg">
</g>
<g xmlns="http://www.w3.org/2000/svg">
</g>
<g xmlns="http://www.w3.org/2000/svg">
</g>
<g xmlns="http://www.w3.org/2000/svg">
</g>
<g xmlns="http://www.w3.org/2000/svg">
</g>
<g xmlns="http://www.w3.org/2000/svg">
</g>
<g xmlns="http://www.w3.org/2000/svg">
</g>
<g xmlns="http://www.w3.org/2000/svg">
</g>
<g xmlns="http://www.w3.org/2000/svg">
</g>
<g xmlns="http://www.w3.org/2000/svg">
</g>
<g xmlns="http://www.w3.org/2000/svg">
</g>
<g xmlns="http://www.w3.org/2000/svg">
</g>
</g></svg>
