<svg id="icons" enable-background="new 0 0 64 64" height="512" viewBox="0 0 64 64" width="512" xmlns="http://www.w3.org/2000/svg"><path d="m39.5 1h-14c-1.1 0-2 .9-2 2v11c0 1.1.9 2 2 2h2 10 2c1.1 0 2-.9 2-2v-11c0-1.1-.9-2-2-2z" fill="#e6e9ed"/><g fill="#656d78"><path d="m44.5 59c1.11 0 2 .89 2 2 0 1.1-.89 2-2 2-1.1 0-2-.9-2-2 0-1.11.9-2 2-2z"/><path d="m20.5 59c1.11 0 2 .89 2 2 0 1.1-.89 2-2 2-1.1 0-2-.9-2-2 0-1.11.9-2 2-2z"/><path d="m32.5 59c1.11 0 2 .89 2 2 0 1.1-.89 2-2 2-1.1 0-2-.9-2-2 0-1.11.9-2 2-2z"/></g><path d="m44.5 56h-12-12v-3h10 4 10z" fill="#e6e9ed"/><path d="m19.5 24v5h-4-4v-5-3l2-2.01h4l2 2.01z" fill="#a0d468"/><path d="m53.5 23v4c0 2.21-1.79 4-4 4-2.2 0-4-1.79-4-4v-4c0-2.21 1.79-4 4-4s4 1.79 4 4z" fill="#656d78"/><path d="m35.5 26v8h-1-4-1v-8z" fill="#656d78"/><path d="m30.5 34h4v19h-4z" fill="#ccd1d9"/><path d="m27.5 16h10v3h-10z" fill="#ccd1d9"/><path d="m41.5 19v15h-3-3v-8h-6v8h-3-3v-10-5h4 10z" fill="#e6e9ed"/><path d="m26.5 4h12v9h-12z" fill="#5d9cec"/><path d="m20.499 64c-1.654 0-3-1.346-3-3s1.346-3 3-3 3 1.346 3 3-1.346 3-3 3zm0-4c-.552 0-1 .448-1 1s.448 1 1 1 1-.448 1-1-.448-1-1-1z"/><path d="m32.5 64c-1.654 0-3-1.346-3-3s1.346-3 3-3 3 1.346 3 3-1.346 3-3 3zm0-4c-.552 0-1 .448-1 1s.448 1 1 1 1-.448 1-1-.448-1-1-1z"/><path d="m44.501 64c-1.654 0-3-1.346-3-3s1.346-3 3-3 3 1.346 3 3-1.346 3-3 3zm0-4c-.552 0-1 .448-1 1s.448 1 1 1 1-.448 1-1-.448-1-1-1z"/><path d="m20.499 60c-.553 0-1-.447-1-1v-6.004c0-.553.447-1 1-1s1 .447 1 1v6.004c0 .553-.447 1-1 1z"/><path d="m44.501 57h-24.002c-.553 0-1-.447-1-1s.447-1 1-1h24.002c.553 0 1 .447 1 1s-.447 1-1 1z"/><path d="m44.501 53.996h-24.002c-.553 0-1-.447-1-1s.447-1 1-1h24.002c.553 0 1 .447 1 1s-.447 1-1 1z"/><path d="m44.501 60c-.553 0-1-.447-1-1v-6.004c0-.553.447-1 1-1s1 .447 1 1v6.004c0 .553-.447 1-1 1z"/><path d="m32.5 60c-.553 0-1-.447-1-1v-3c0-.553.447-1 1-1s1 .447 1 1v3c0 .553-.447 1-1 1z"/><path d="m34.5 53.996h-4c-.553 0-1-.447-1-1v-18.992c0-.553.447-1 1-1h4c.553 0 1 .447 1 1v18.992c0 .553-.447 1-1 1zm-3-2h2v-16.992h-2z"/><path d="m41.5 35.004h-18c-.553 0-1-.447-1-1v-15c0-.553.447-1 1-1h18c.553 0 1 .447 1 1v15c0 .553-.447 1-1 1zm-17-2h16v-13h-16z"/><path d="m39.5 17h-14c-1.654 0-3-1.346-3-3v-11c0-1.654 1.346-3 3-3h14c1.654 0 3 1.346 3 3v11c0 1.654-1.346 3-3 3zm-14-15c-.552 0-1 .448-1 1v11c0 .552.448 1 1 1h14c.552 0 1-.448 1-1v-11c0-.552-.448-1-1-1z"/><path d="m27.501 20.004c-.553 0-1-.447-1-1v-3.004c0-.553.447-1 1-1s1 .447 1 1v3.004c0 .553-.447 1-1 1z"/><path d="m37.499 20.004c-.553 0-1-.447-1-1v-3.004c0-.553.447-1 1-1s1 .447 1 1v3.004c0 .553-.447 1-1 1z"/><path d="m38.5 14h-12c-.553 0-1-.447-1-1v-9c0-.553.447-1 1-1h12c.553 0 1 .447 1 1v9c0 .553-.447 1-1 1zm-11-2h10v-7h-10z"/><path d="m35.5 35.004h-6c-.553 0-1-.447-1-1v-8.004c0-.553.447-1 1-1h6c.553 0 1 .447 1 1v8.004c0 .553-.447 1-1 1zm-5-2h4v-6.004h-4z"/><path d="m32.53 32c-.553 0-1.005-.447-1.005-1s.442-1 .994-1h.011c.552 0 1 .447 1 1s-.448 1-1 1z"/><path d="m26.5 42.5c-.553 0-1-.447-1-1v-7.496c0-.553.447-1 1-1s1 .447 1 1v7.496c0 .553-.447 1-1 1z"/><path d="m21 48c-3.584 0-6.5-2.916-6.5-6.5 0-.553.447-1 1-1s1 .447 1 1c0 2.481 2.019 4.5 4.5 4.5s4.5-2.019 4.5-4.5c0-.553.447-1 1-1s1 .447 1 1c0 3.584-2.916 6.5-6.5 6.5z"/><path d="m19.5 29.998h-8.002c-.553 0-1-.447-1-1v-8.002c0-.265.105-.52.293-.707l2-2.002c.188-.188.441-.293.707-.293h4.002c.266 0 .52.105.707.293l2 2.002c.188.188.293.442.293.707v8.002c0 .553-.447 1-1 1zm-7.002-2h6.002v-6.588l-1.414-1.416h-3.174l-1.414 1.416z"/><path d="m15.5 42.5c-.553 0-1-.447-1-1v-15.506c0-.553.447-1 1-1s1 .447 1 1v15.506c0 .553-.447 1-1 1z"/><path d="m38.501 42.5c-.553 0-1-.447-1-1v-7.496c0-.553.447-1 1-1s1 .447 1 1v7.496c0 .553-.447 1-1 1z"/><path d="m44.001 48c-3.584 0-6.5-2.916-6.5-6.5 0-.553.447-1 1-1s1 .447 1 1c0 2.481 2.019 4.5 4.5 4.5s4.5-2.019 4.5-4.5c0-.553.447-1 1-1s1 .447 1 1c0 3.584-2.916 6.5-6.5 6.5z"/><path d="m49.501 42.5c-.553 0-1-.447-1-1v-10.5c0-.553.447-1 1-1s1 .447 1 1v10.5c0 .553-.447 1-1 1z"/><path d="m16.5 26.998h-2c-.553 0-1-.447-1-1s.447-1 1-1h2c.553 0 1 .447 1 1s-.447 1-1 1z"/><path d="m20.5 24.998h-1c-.553 0-1-.447-1-1s.447-1 1-1h1c.553 0 1 .447 1 1s-.447 1-1 1z"/><path d="m11.498 24.998h-.998c-.553 0-1-.447-1-1s.447-1 1-1h.998c.553 0 1 .447 1 1s-.447 1-1 1z"/><path d="m53.5 24c-.553 0-1-.447-1-1 0-1.654-1.346-3-3-3s-3 1.346-3 3c0 .553-.447 1-1 1s-1-.447-1-1c0-2.757 2.243-5 5-5s5 2.243 5 5c0 .553-.447 1-1 1z"/><path d="m49.5 31.996c-2.756 0-4.998-2.242-4.998-4.998 0-.553.447-1 1-1s1 .447 1 1c0 1.653 1.345 2.998 2.998 2.998s2.998-1.345 2.998-2.998c0-.553.447-1 1-1s1 .447 1 1c0 2.756-2.242 4.998-4.998 4.998z"/><path d="m45.5 27.998c-.553 0-1-.447-1-1v-3.998c0-.553.447-1 1-1s1 .447 1 1v3.998c0 .553-.447 1-1 1z"/><path d="m53.5 27.998c-.553 0-1-.447-1-1v-3.998c0-.553.447-1 1-1s1 .447 1 1v3.998c0 .553-.447 1-1 1z"/></svg>