<svg id="icons" enable-background="new 0 0 64 64" height="512" viewBox="0 0 64 64" width="512" xmlns="http://www.w3.org/2000/svg"><path d="m63 30.004h-3c-.553 0-1 .447-1 1v3.996h-2.008c0-.553-.447-1-1-1h-38.004c-.553 0-1 .447-1 1h-.994v-.996c0-2.76-2.246-5.006-5.006-5.006-.007 0-.013.004-.02.004h-5.968v-12.012c0-.553-.447-1-1-1h-3c-.553 0-1 .447-1 1v41.008c0 .553.447 1 1 1h3c.553 0 1-.447 1-1v-4.996h54v4.996c0 .553.447 1 1 1h3c.553 0 1-.447 1-1v-26.994c0-.553-.447-1-1-1zm-4 6.996v2.006h-2.008v-2.006zm-40.012 8.002v-9.002h1.012v7c0 .553.447 1 1 1h32c.553 0 1-.447 1-1v-7h.992v9.002zm33.012-3.002h-30v-6h30zm-35.012-2.994h-11.988v-2.006h11.988zm-6-8.004c.005 0 .008-.003.013-.003 1.651.008 2.993 1.353 2.993 3.005v.996h-8.994v-3.998zm-8.988 25.996v-39.008h1v11.982c0 .011-.006.019-.006.029s.006.02.006.03v26.967zm3-5.996v-9.996h11.988v4.996c0 .553.447 1 1 1h38.004c.553 0 1-.447 1-1v-4.996h2.008v9.996zm57 5.996h-1v-24.994h1z"/><path d="m35.003 5.002c-6.065 0-11 4.935-11 11s4.935 11 11 11 11-4.935 11-11-4.935-11-11-11zm0 20c-4.963 0-9-4.037-9-9s4.037-9 9-9 9 4.037 9 9-4.037 9-9 9z"/><path d="m38.998 15h-3v-3c0-.553-.447-1-1-1s-1 .447-1 1v3h-3c-.553 0-1 .447-1 1s.447 1 1 1h3v3c0 .553.447 1 1 1s1-.447 1-1v-3h3c.553 0 1-.447 1-1s-.447-1-1-1z"/></svg>