<svg id="Capa_1" enable-background="new 0 0 512 512" height="512" viewBox="0 0 512 512" width="512" xmlns="http://www.w3.org/2000/svg"><g><g><g><g><g><path d="m408.995 10c14.81 0 26.43 16.489 26.43 16.489s10.96-16.489 26.435-16.489c15.053 0 27.345 12.397 28.149 27.407.453 8.48-2.284 14.933-6.142 20.778-7.707 11.678-48.493 44.989-48.493 44.989s-40.632-33.209-48.391-44.989c-3.865-5.872-6.595-12.299-6.14-20.778.805-15.01 13.098-27.407 28.152-27.407" fill="#ff7d97"/></g></g></g><g><g><path d="m120.807 201.5v61.94h70.667v-172.041c0-23.932-19.401-43.333-43.333-43.333h-27.333v62.934" fill="#fff7bf"/><path d="m188.51 263.44h194.666c14.873 0 26.93 12.057 26.93 26.93v67.171h-155.336" fill="#fff2a0"/><g><circle cx="410.105" cy="449.641" fill="#bfdbff" r="52.359"/></g><g><g><circle cx="136.152" cy="382.72" fill="#bfdbff" r="52.359"/></g></g></g></g></g><g><path d="m435.375 113.175c-2.244 0-4.487-.752-6.328-2.257-6.982-5.707-42.229-34.805-50.414-47.232-3.658-5.557-8.442-14.38-7.774-26.814 1.108-20.676 17.859-36.872 38.135-36.872 11.005 0 20.162 5.966 26.308 11.526 6.057-5.585 15.176-11.526 26.558-11.526 20.275 0 37.026 16.196 38.135 36.872.666 12.462-4.121 21.275-7.78 26.821-8.137 12.327-43.506 41.503-50.514 47.227-1.841 1.503-4.084 2.255-6.326 2.255zm-26.381-93.175c-9.485 0-17.635 8.049-18.165 17.942-.278 5.186 1.028 9.458 4.508 14.745 4.394 6.671 24.78 24.728 40.041 37.508 15.319-12.816 35.782-30.91 40.145-37.518 3.475-5.267 4.779-9.537 4.502-14.736-.531-9.892-8.679-17.941-18.165-17.941-9.681 0-18.028 11.905-18.108 12.025-1.827 2.749-4.893 4.419-8.192 4.463-3.275.044-6.41-1.541-8.311-4.239-2.261-3.154-10.521-12.249-18.255-12.249z"/><path d="m495.129 439.361h-23.512c-4.374-26.259-25.213-47.02-51.51-51.277l-.001-97.714c0-14.27-8.135-26.675-20.012-32.821v-43.018c0-37.587-30.579-68.167-68.166-68.167h-130.454v-54.966c0-29.408-23.925-53.333-53.333-53.333h-115.27c-5.523 0-10 4.477-10 10s4.478 10 10 10h77.937v52.935c0 5.523 4.478 10 10 10s10-4.477 10-10v-52.935h17.333c18.38 0 33.333 14.953 33.333 33.333v162.042h-50.666v-51.94c0-5.523-4.478-10-10-10s-10 4.477-10 10v54.434c-59.193 11.812-103.937 64.172-103.937 126.786 0 71.285 57.995 129.28 129.28 129.28s129.28-57.995 129.28-129.28c0-5.134-.302-10.2-.886-15.18h135.561v20.543c-29.648 4.798-52.359 30.576-52.359 61.558 0 34.385 27.974 62.359 62.358 62.359 31.079 0 56.92-22.854 61.602-52.639h23.422c5.522 0 10-4.477 10-10s-4.478-10-10-10zm-163.201-272.997c26.559 0 48.166 21.607 48.166 48.167v38.909h-178.62v-87.076zm-195.777 325.636c-60.258 0-109.28-49.023-109.28-109.28s49.022-109.28 109.28-109.28 109.28 49.023 109.28 109.28c.001 60.257-49.022 109.28-109.28 109.28zm263.954-144.46h-139.538c-8.769-30.97-28.817-57.25-55.406-74.1h178.014c9.335 0 16.93 7.595 16.93 16.93zm10 144.46c-23.357 0-42.358-19.002-42.358-42.359s19.002-42.359 42.358-42.359 42.358 19.002 42.358 42.359c.001 23.357-19.001 42.359-42.358 42.359z"/><g><path d="m120.81 166.36c-4.236 0-8.109-2.77-9.47-6.784-1.357-4.002.016-8.583 3.384-11.147 3.238-2.465 7.726-2.708 11.223-.636 3.635 2.154 5.532 6.562 4.627 10.686-.997 4.546-5.102 7.881-9.764 7.881z"/></g><g><path d="m136.151 445.079c-34.385 0-62.358-27.974-62.358-62.359s27.974-62.358 62.358-62.358c34.385 0 62.359 27.974 62.359 62.358.001 34.384-27.974 62.359-62.359 62.359zm0-104.718c-23.356 0-42.358 19.002-42.358 42.358 0 23.357 19.002 42.359 42.358 42.359 23.357 0 42.359-19.002 42.359-42.359.001-23.356-19.001-42.358-42.359-42.358z"/></g></g></g></svg>